<svg xmlns="http://www.w3.org/2000/svg" viewBox="0 0 64 64">
  <!-- Background circle with gradient -->
  <defs>
    <linearGradient id="grad1" x1="0%" y1="0%" x2="100%" y2="100%">
      <stop offset="0%" style="stop-color:#8B5CF6;stop-opacity:1" />
      <stop offset="100%" style="stop-color:#EC4899;stop-opacity:1" />
    </linearGradient>
    <linearGradient id="champagne" x1="0%" y1="0%" x2="0%" y2="100%">
      <stop offset="0%" style="stop-color:#FDE047;stop-opacity:1" />
      <stop offset="100%" style="stop-color:#FACC15;stop-opacity:1" />
    </linearGradient>
  </defs>

  <!-- Background -->
  <circle cx="32" cy="32" r="32" fill="url(#grad1)"/>

  <!-- Party hat (triangle) -->
  <path d="M 32 12 L 24 28 L 40 28 Z" fill="#FFD700" stroke="#FFA500" stroke-width="1.5"/>
  <ellipse cx="32" cy="28" rx="8" ry="2" fill="#FFA500"/>
  <circle cx="32" cy="12" r="2.5" fill="#FF69B4"/>

  <!-- Champagne glass -->
  <path d="M 28 35 L 30 50 L 34 50 L 36 35 Z" fill="url(#champagne)" stroke="#D4AF37" stroke-width="1"/>

  <!-- Glass stem -->
  <rect x="30" y="50" width="4" height="6" fill="#D4AF37"/>

  <!-- Glass base -->
  <ellipse cx="32" cy="56" rx="5" ry="1.5" fill="#B8860B"/>

  <!-- Champagne bubbles -->
  <circle cx="30" cy="42" r="1" fill="#FFF" opacity="0.7"/>
  <circle cx="33" cy="38" r="1" fill="#FFF" opacity="0.7"/>
  <circle cx="31" cy="45" r="0.8" fill="#FFF" opacity="0.6"/>

  <!-- Confetti -->
  <rect x="18" y="30" width="2" height="4" fill="#FF6B6B" transform="rotate(45 19 32)"/>
  <rect x="44" y="32" width="2" height="4" fill="#4ECDC4" transform="rotate(-30 45 34)"/>
  <circle cx="22" cy="42" r="1.5" fill="#FFE66D"/>
  <circle cx="42" cy="44" r="1.5" fill="#FF6B6B"/>
  <rect x="20" y="48" width="2" height="3" fill="#A8E6CF" transform="rotate(20 21 49)"/>
  <rect x="43" y="50" width="2" height="3" fill="#FFD3B6" transform="rotate(-40 44 51)"/>
</svg>
